<mxfile host="app.diagrams.net" modified="2022-12-30T09:33:38.473Z" agent="5.0 (Windows NT 10.0; Win64; x64) AppleWebKit/537.36 (KHTML, like Gecko) Chrome/108.0.0.0 Safari/537.36" etag="CFfOEPyhZ4cItkcdekgC" version="20.3.2" type="github">
  <diagram id="C5RBs43oDa-KdzZeNtuy" name="Page-1">
    <mxGraphModel dx="2622" dy="794" grid="1" gridSize="10" guides="1" tooltips="1" connect="1" arrows="1" fold="1" page="1" pageScale="1" pageWidth="1200" pageHeight="1600" math="0" shadow="0">
      <root>
        <mxCell id="WIyWlLk6GJQsqaUBKTNV-0" />
        <mxCell id="WIyWlLk6GJQsqaUBKTNV-1" parent="WIyWlLk6GJQsqaUBKTNV-0" />
        <mxCell id="zWHT3cYMJzGiNdSItW_B-34" style="edgeStyle=orthogonalEdgeStyle;rounded=0;orthogonalLoop=1;jettySize=auto;html=1;entryX=0.5;entryY=0;entryDx=0;entryDy=0;" edge="1" parent="WIyWlLk6GJQsqaUBKTNV-1" source="zWHT3cYMJzGiNdSItW_B-32" target="zWHT3cYMJzGiNdSItW_B-33">
          <mxGeometry relative="1" as="geometry" />
        </mxCell>
        <mxCell id="zWHT3cYMJzGiNdSItW_B-32" value="开始" style="ellipse;whiteSpace=wrap;html=1;aspect=fixed;" vertex="1" parent="WIyWlLk6GJQsqaUBKTNV-1">
          <mxGeometry x="-960" y="40" width="60" height="60" as="geometry" />
        </mxCell>
        <mxCell id="zWHT3cYMJzGiNdSItW_B-68" style="edgeStyle=orthogonalEdgeStyle;rounded=0;orthogonalLoop=1;jettySize=auto;html=1;entryX=0;entryY=0.5;entryDx=0;entryDy=0;" edge="1" parent="WIyWlLk6GJQsqaUBKTNV-1" source="zWHT3cYMJzGiNdSItW_B-33" target="zWHT3cYMJzGiNdSItW_B-42">
          <mxGeometry relative="1" as="geometry" />
        </mxCell>
        <mxCell id="zWHT3cYMJzGiNdSItW_B-33" value="工程信息核对—无线基站" style="rounded=1;whiteSpace=wrap;html=1;fontSize=12;glass=0;strokeWidth=1;shadow=0;fillColor=#dae8fc;strokeColor=#6c8ebf;" vertex="1" parent="WIyWlLk6GJQsqaUBKTNV-1">
          <mxGeometry x="-1010" y="160" width="160" height="40" as="geometry" />
        </mxCell>
        <mxCell id="zWHT3cYMJzGiNdSItW_B-38" value="是" style="edgeStyle=orthogonalEdgeStyle;rounded=0;orthogonalLoop=1;jettySize=auto;html=1;entryX=0.5;entryY=0;entryDx=0;entryDy=0;" edge="1" parent="WIyWlLk6GJQsqaUBKTNV-1" source="zWHT3cYMJzGiNdSItW_B-35" target="zWHT3cYMJzGiNdSItW_B-37">
          <mxGeometry relative="1" as="geometry" />
        </mxCell>
        <mxCell id="zWHT3cYMJzGiNdSItW_B-70" value="f否" style="edgeStyle=orthogonalEdgeStyle;rounded=0;orthogonalLoop=1;jettySize=auto;html=1;entryX=0.5;entryY=0;entryDx=0;entryDy=0;" edge="1" parent="WIyWlLk6GJQsqaUBKTNV-1" source="zWHT3cYMJzGiNdSItW_B-35" target="zWHT3cYMJzGiNdSItW_B-61">
          <mxGeometry relative="1" as="geometry" />
        </mxCell>
        <mxCell id="zWHT3cYMJzGiNdSItW_B-35" value="工程原因？" style="rhombus;whiteSpace=wrap;html=1;rounded=1;glass=0;strokeWidth=1;shadow=0;arcSize=0;" vertex="1" parent="WIyWlLk6GJQsqaUBKTNV-1">
          <mxGeometry x="90" y="270" width="160" height="50" as="geometry" />
        </mxCell>
        <mxCell id="zWHT3cYMJzGiNdSItW_B-60" style="edgeStyle=orthogonalEdgeStyle;rounded=0;orthogonalLoop=1;jettySize=auto;html=1;entryX=0;entryY=0.5;entryDx=0;entryDy=0;" edge="1" parent="WIyWlLk6GJQsqaUBKTNV-1" source="zWHT3cYMJzGiNdSItW_B-37" target="zWHT3cYMJzGiNdSItW_B-39">
          <mxGeometry relative="1" as="geometry">
            <Array as="points">
              <mxPoint x="-300" y="715" />
            </Array>
          </mxGeometry>
        </mxCell>
        <mxCell id="zWHT3cYMJzGiNdSItW_B-37" value="&lt;b&gt;设置定界结论&lt;br&gt;&lt;/b&gt;&lt;br&gt;&lt;div style=&quot;text-align: left;&quot;&gt;&lt;span style=&quot;background-color: initial;&quot;&gt;工程原因导致&lt;/span&gt;&lt;/div&gt;" style="rounded=1;whiteSpace=wrap;html=1;fontSize=12;glass=0;strokeWidth=1;shadow=0;fillColor=#fff2cc;strokeColor=#d6b656;verticalAlign=top;" vertex="1" parent="WIyWlLk6GJQsqaUBKTNV-1">
          <mxGeometry x="-390" y="430" width="180" height="90" as="geometry" />
        </mxCell>
        <mxCell id="zWHT3cYMJzGiNdSItW_B-59" style="edgeStyle=orthogonalEdgeStyle;rounded=0;orthogonalLoop=1;jettySize=auto;html=1;entryX=0.5;entryY=0;entryDx=0;entryDy=0;" edge="1" parent="WIyWlLk6GJQsqaUBKTNV-1" source="zWHT3cYMJzGiNdSItW_B-39" target="zWHT3cYMJzGiNdSItW_B-58">
          <mxGeometry relative="1" as="geometry" />
        </mxCell>
        <mxCell id="zWHT3cYMJzGiNdSItW_B-39" value="&lt;b&gt;设置预处理结果&lt;br&gt;&lt;/b&gt;&lt;br&gt;将5个预处理步骤的结果说明拼接成一个字符串输出" style="rounded=1;whiteSpace=wrap;html=1;fontSize=12;glass=0;strokeWidth=1;shadow=0;fillColor=#fff2cc;strokeColor=#d6b656;verticalAlign=top;" vertex="1" parent="WIyWlLk6GJQsqaUBKTNV-1">
          <mxGeometry x="-390" y="670" width="180" height="90" as="geometry" />
        </mxCell>
        <mxCell id="zWHT3cYMJzGiNdSItW_B-46" style="edgeStyle=orthogonalEdgeStyle;rounded=0;orthogonalLoop=1;jettySize=auto;html=1;entryX=0;entryY=0.5;entryDx=0;entryDy=0;" edge="1" parent="WIyWlLk6GJQsqaUBKTNV-1" source="zWHT3cYMJzGiNdSItW_B-42" target="zWHT3cYMJzGiNdSItW_B-45">
          <mxGeometry relative="1" as="geometry" />
        </mxCell>
        <mxCell id="zWHT3cYMJzGiNdSItW_B-42" value="地市全量基站退服" style="rounded=1;whiteSpace=wrap;html=1;fontSize=12;glass=0;strokeWidth=1;shadow=0;fillColor=#dae8fc;strokeColor=#6c8ebf;" vertex="1" parent="WIyWlLk6GJQsqaUBKTNV-1">
          <mxGeometry x="-770" y="160" width="160" height="40" as="geometry" />
        </mxCell>
        <mxCell id="zWHT3cYMJzGiNdSItW_B-50" style="edgeStyle=orthogonalEdgeStyle;rounded=0;orthogonalLoop=1;jettySize=auto;html=1;entryX=0;entryY=0.5;entryDx=0;entryDy=0;" edge="1" parent="WIyWlLk6GJQsqaUBKTNV-1" source="zWHT3cYMJzGiNdSItW_B-45" target="zWHT3cYMJzGiNdSItW_B-47">
          <mxGeometry relative="1" as="geometry" />
        </mxCell>
        <mxCell id="zWHT3cYMJzGiNdSItW_B-45" value="BSC故障排查" style="rounded=1;whiteSpace=wrap;html=1;fontSize=12;glass=0;strokeWidth=1;shadow=0;fillColor=#dae8fc;strokeColor=#6c8ebf;" vertex="1" parent="WIyWlLk6GJQsqaUBKTNV-1">
          <mxGeometry x="-550" y="160" width="160" height="40" as="geometry" />
        </mxCell>
        <mxCell id="zWHT3cYMJzGiNdSItW_B-51" style="edgeStyle=orthogonalEdgeStyle;rounded=0;orthogonalLoop=1;jettySize=auto;html=1;entryX=0;entryY=0.5;entryDx=0;entryDy=0;" edge="1" parent="WIyWlLk6GJQsqaUBKTNV-1" source="zWHT3cYMJzGiNdSItW_B-47" target="zWHT3cYMJzGiNdSItW_B-48">
          <mxGeometry relative="1" as="geometry" />
        </mxCell>
        <mxCell id="zWHT3cYMJzGiNdSItW_B-47" value="动环故障排查" style="rounded=1;whiteSpace=wrap;html=1;fontSize=12;glass=0;strokeWidth=1;shadow=0;fillColor=#dae8fc;strokeColor=#6c8ebf;" vertex="1" parent="WIyWlLk6GJQsqaUBKTNV-1">
          <mxGeometry x="-340" y="160" width="160" height="40" as="geometry" />
        </mxCell>
        <mxCell id="zWHT3cYMJzGiNdSItW_B-53" style="edgeStyle=orthogonalEdgeStyle;rounded=0;orthogonalLoop=1;jettySize=auto;html=1;entryX=0;entryY=0.5;entryDx=0;entryDy=0;" edge="1" parent="WIyWlLk6GJQsqaUBKTNV-1" source="zWHT3cYMJzGiNdSItW_B-48" target="zWHT3cYMJzGiNdSItW_B-49">
          <mxGeometry relative="1" as="geometry" />
        </mxCell>
        <mxCell id="zWHT3cYMJzGiNdSItW_B-48" value="传输故障排查—GSM基站退服" style="rounded=1;whiteSpace=wrap;html=1;fontSize=12;glass=0;strokeWidth=1;shadow=0;fillColor=#dae8fc;strokeColor=#6c8ebf;" vertex="1" parent="WIyWlLk6GJQsqaUBKTNV-1">
          <mxGeometry x="-130" y="160" width="160" height="40" as="geometry" />
        </mxCell>
        <mxCell id="zWHT3cYMJzGiNdSItW_B-69" style="edgeStyle=orthogonalEdgeStyle;rounded=0;orthogonalLoop=1;jettySize=auto;html=1;entryX=0.5;entryY=0;entryDx=0;entryDy=0;" edge="1" parent="WIyWlLk6GJQsqaUBKTNV-1" source="zWHT3cYMJzGiNdSItW_B-49" target="zWHT3cYMJzGiNdSItW_B-35">
          <mxGeometry relative="1" as="geometry">
            <Array as="points">
              <mxPoint x="170" y="270" />
            </Array>
          </mxGeometry>
        </mxCell>
        <mxCell id="zWHT3cYMJzGiNdSItW_B-49" value="无线故障排查" style="rounded=1;whiteSpace=wrap;html=1;fontSize=12;glass=0;strokeWidth=1;shadow=0;fillColor=#dae8fc;strokeColor=#6c8ebf;" vertex="1" parent="WIyWlLk6GJQsqaUBKTNV-1">
          <mxGeometry x="90" y="160" width="160" height="40" as="geometry" />
        </mxCell>
        <mxCell id="zWHT3cYMJzGiNdSItW_B-58" value="结束" style="ellipse;whiteSpace=wrap;html=1;aspect=fixed;fillColor=#0050ef;fontColor=#ffffff;strokeColor=#001DBC;" vertex="1" parent="WIyWlLk6GJQsqaUBKTNV-1">
          <mxGeometry x="-330" y="820" width="60" height="60" as="geometry" />
        </mxCell>
        <mxCell id="zWHT3cYMJzGiNdSItW_B-63" style="edgeStyle=orthogonalEdgeStyle;rounded=0;orthogonalLoop=1;jettySize=auto;html=1;entryX=1;entryY=0.5;entryDx=0;entryDy=0;" edge="1" parent="WIyWlLk6GJQsqaUBKTNV-1" source="zWHT3cYMJzGiNdSItW_B-61" target="zWHT3cYMJzGiNdSItW_B-39">
          <mxGeometry relative="1" as="geometry">
            <Array as="points">
              <mxPoint x="180" y="715" />
            </Array>
          </mxGeometry>
        </mxCell>
        <mxCell id="zWHT3cYMJzGiNdSItW_B-61" value="&lt;b&gt;设置定界结论&lt;br&gt;&lt;/b&gt;&lt;br&gt;&lt;div style=&quot;text-align: left;&quot;&gt;共XX个基站退服，主要原因：BSC设备故障/动力故障/传输故障/无线故障。&lt;/div&gt;&lt;div style=&quot;text-align: left;&quot;&gt;传输原因导致基站退服占比：XX%&lt;/div&gt;&lt;div style=&quot;text-align: left;&quot;&gt;动力原因导致基站退服占比：XX%&lt;/div&gt;&lt;div style=&quot;text-align: left;&quot;&gt;BSC设备原因导致基站退服占比：XX%&lt;/div&gt;&lt;div style=&quot;text-align: left;&quot;&gt;无线设备导致基站退服占比：XX%&lt;/div&gt;" style="rounded=1;whiteSpace=wrap;html=1;fontSize=12;glass=0;strokeWidth=1;shadow=0;fillColor=#fff2cc;strokeColor=#d6b656;verticalAlign=top;" vertex="1" parent="WIyWlLk6GJQsqaUBKTNV-1">
          <mxGeometry x="-40" y="420" width="420" height="130" as="geometry" />
        </mxCell>
      </root>
    </mxGraphModel>
  </diagram>
</mxfile>
